HIERARCHY
ROOT Hips
{
	OFFSET 0.000000 0.000000 0.000000
	CHANNELS 6 Xposition Yposition Zposition Zrotation Yrotation Xrotation 
	JOINT LHipJoint
	{
		OFFSET 0.000000 0.000000 0.000000
		CHANNELS 3 Zrotation Yrotation Xrotation
		JOINT LeftUpLeg
		{
			OFFSET 1.363060 -1.794630 0.839290
			CHANNELS 3 Zrotation Yrotation Xrotation
			JOINT LeftLeg
			{
				OFFSET 2.448110 -6.726130 0.000000
				CHANNELS 3 Zrotation Yrotation Xrotation
				JOINT LeftFoot
				{
					OFFSET 2.562200 -7.039590 0.000000
					CHANNELS 3 Zrotation Yrotation Xrotation
					JOINT LeftToeBase
					{
						OFFSET 0.157640 -0.433110 2.322550
						CHANNELS 3 Zrotation Yrotation Xrotation
						End Site
						{
							OFFSET 0.000000 0.000000 0.000000
						}
					}
				}
			}
		}
	}
	JOINT RHipJoint
	{
		OFFSET 0.000000 0.000000 0.000000
		CHANNELS 3 Zrotation Yrotation Xrotation
		JOINT RightUpLeg
		{
			OFFSET -1.305520 -1.794630 0.839290
			CHANNELS 3 Zrotation Yrotation Xrotation
			JOINT RightLeg
			{
				OFFSET -2.542530 -6.985550 0.000000
				CHANNELS 3 Zrotation Yrotation Xrotation
				JOINT RightFoot
				{
					OFFSET -2.568260 -7.056230 0.000000
					CHANNELS 3 Zrotation Yrotation Xrotation
					JOINT RightToeBase
					{
						OFFSET -0.164730 -0.452590 2.363150
						CHANNELS 3 Zrotation Yrotation Xrotation
						End Site
						{
							OFFSET 0.000000 0.000000 0.000000
						}
					}
				}
			}
		}
	}
	JOINT LowerBack
	{
		OFFSET 0.000000 0.000000 0.000000
		CHANNELS 3 Zrotation Yrotation Xrotation
		JOINT Spine
		{
			OFFSET 0.028270 2.035590 -0.193380
			CHANNELS 3 Zrotation Yrotation Xrotation
			JOINT Spine1
			{
				OFFSET 0.056720 2.048850 -0.042750
				CHANNELS 3 Zrotation Yrotation Xrotation
				JOINT Neck
				{
					OFFSET 0.000000 0.000000 0.000000
					CHANNELS 3 Zrotation Yrotation Xrotation
					JOINT Neck1
					{
						OFFSET -0.054170 1.746240 0.172020
						CHANNELS 3 Zrotation Yrotation Xrotation
						JOINT Head
						{
							OFFSET 0.104070 1.761360 -0.123970
							CHANNELS 3 Zrotation Yrotation Xrotation
							End Site
							{
								OFFSET 0.000000 0.000000 0.000000
							}
						}
					}
				}
				JOINT LeftShoulder
				{
					OFFSET 0.000000 0.000000 0.000000
					CHANNELS 3 Zrotation Yrotation Xrotation
					JOINT LeftArm
					{
						OFFSET 3.362410 1.200890 -0.311210
						CHANNELS 3 Zrotation Yrotation Xrotation
						JOINT LeftForeArm
						{
							OFFSET 4.983000 -0.000000 -0.000000
							CHANNELS 3 Zrotation Yrotation Xrotation
							JOINT LeftHand
							{
								OFFSET 3.483560 -0.000000 -0.000000
								CHANNELS 3 Zrotation Yrotation Xrotation
								JOINT LeftFingerBase
								{
									OFFSET 0.000000 0.000000 0.000000
									CHANNELS 3 Zrotation Yrotation Xrotation
									JOINT LeftHandIndex1
									{
										OFFSET 0.715260 -0.000000 -0.000000
										CHANNELS 3 Zrotation Yrotation Xrotation
										End Site
										{
											OFFSET 0.000000 0.000000 0.000000
										}
									}
								}
								JOINT LThumb
								{
									OFFSET 0.000000 0.000000 0.000000
									CHANNELS 3 Zrotation Yrotation Xrotation
									End Site
									{
										OFFSET 0.000000 0.000000 0.000000
									}
								}
							}
						}
					}
				}
				JOINT RightShoulder
				{
					OFFSET 0.000000 0.000000 0.000000
					CHANNELS 3 Zrotation Yrotation Xrotation
					JOINT RightArm
					{
						OFFSET -3.136600 1.374050 -0.404650
						CHANNELS 3 Zrotation Yrotation Xrotation
						JOINT RightForeArm
						{
							OFFSET -5.241900 -0.000000 -0.000000
							CHANNELS 3 Zrotation Yrotation Xrotation
							JOINT RightHand
							{
								OFFSET -3.444170 -0.000000 -0.000000
								CHANNELS 3 Zrotation Yrotation Xrotation
								JOINT RightFingerBase
								{
									OFFSET 0.000000 0.000000 0.000000
									CHANNELS 3 Zrotation Yrotation Xrotation
									JOINT RightHandIndex1
									{
										OFFSET -0.622530 -0.000000 -0.000000
										CHANNELS 3 Zrotation Yrotation Xrotation
										End Site
										{
											OFFSET 0.000000 0.000000 0.000000
										}
									}
								}
								JOINT RThumb
								{
									OFFSET 0.000000 0.000000 0.000000
									CHANNELS 3 Zrotation Yrotation Xrotation
									End Site
									{
										OFFSET 0.000000 0.000000 0.000000
									}
								}
							}
						}
					}
				}
			}
		}
	}
}
MOTION
Frames: 12
Frame Time: 0.008333
-0.197133 17.314692 -1.442624 152.355009 -82.885663 -138.319564 -10.470055 -1.506619 0.250672 -2.015905 -10.277221 -37.642498 0.927091 2.263309 49.513123 4.085448 26.626702 16.484556 10.927800 -0.000001 -53.700200 7.875288 0.106053 -0.619844 10.625045 6.920320 -13.759428 2.191726 0.564897 7.407373 -1.569126 -6.842306 -5.431281 -0.838700 0.000001 -40.874800 2.767314 -0.493642 2.730766 -0.402942 -0.631174 -2.863130 -6.744995 -0.774916 -1.325645 9.310144 2.088733 -1.585590 -4.674201 -0.393138 1.477094 0.000000 0.000000 0.000000 -2.124019 -3.292975 2.267216 -68.555450 2.511441 12.914159 -2.678446 -29.913709 0.002932 4.780268 -3.741872 -0.159107 -0.066242 0.028513 0.000000 0.000000 0.000000 0.000000 0.000000 0.000000 0.000000 19.408389 3.076322 2.063836 65.109414 12.918905 -6.038720 3.581316 9.734930 0.013449 -1.538946 10.412604 -0.149322 0.087216 -0.123325 0.000000 0.000000 0.000000 0.000000 0.000000 0.000000 0.000000 
-0.184887 17.313824 -1.459357 150.402738 -82.807438 -136.800951 -10.469509 -1.640884 0.249955 -2.105967 -10.860168 -38.551395 1.001349 2.356257 51.714293 4.106749 26.779862 18.076607 11.558700 0.000000 -52.487700 7.908252 0.135707 -0.758712 10.454276 6.709447 -13.333371 2.154784 0.504577 7.681317 -1.577586 -6.826699 -5.612062 -0.801601 0.000000 -40.855000 2.603039 -0.517476 2.882736 -0.433100 -0.639944 -2.829264 -6.728792 -0.781050 -1.321314 9.272657 1.933234 -1.646238 -4.677904 -0.393089 1.459802 0.000000 0.000000 0.000000 -2.146997 -3.205374 2.247990 -68.665608 2.800666 12.753504 -2.672716 -29.950568 0.003040 4.769177 -3.754655 -0.159115 -0.064937 0.026227 0.000000 0.000000 0.000000 0.000000 0.000000 0.000000 0.000000 19.397062 2.940287 2.056010 64.974932 12.689336 -6.025390 3.591362 9.833484 0.013515 -1.525933 10.341191 -0.147123 0.087828 -0.121936 0.000000 0.000000 0.000000 0.000000 0.000000 0.000000 0.000000 
-0.172537 17.312947 -1.475564 148.465005 -82.723236 -135.293890 -10.464412 -1.776430 0.238461 -2.233932 -11.385573 -39.486459 1.067859 2.449953 53.893486 4.118729 26.836879 19.529273 12.086700 -0.000000 -51.273000 7.946802 0.165490 -0.888382 10.268270 6.526097 -12.921056 2.113864 0.442391 7.969556 -1.591640 -6.838189 -5.797477 -0.766700 0.000000 -40.839701 2.432835 -0.539491 3.034755 -0.464889 -0.646695 -2.795970 -6.714300 -0.785234 -1.318356 9.245518 1.785496 -1.700011 -4.682874 -0.393167 1.444205 0.000000 0.000000 0.000000 -2.168524 -3.121160 2.228383 -68.788914 3.081839 12.568986 -2.666834 -29.985278 0.003139 4.761417 -3.771742 -0.159524 -0.063600 0.024037 0.000000 0.000000 0.000000 0.000000 0.000000 0.000000 0.000000 19.402244 2.810899 2.047155 64.833136 12.454237 -5.947854 3.601114 9.967299 0.013577 -1.510170 10.269389 -0.144722 0.088387 -0.120436 0.000000 0.000000 0.000000 0.000000 0.000000 0.000000 0.000000 
-0.160330 17.312063 -1.491353 146.565950 -82.629654 -133.818618 -10.454137 -1.910847 0.217546 -2.400075 -11.853166 -40.449433 1.130080 2.545966 56.048875 4.122198 26.805052 20.799659 12.496500 0.000000 -50.141900 7.992318 0.195380 -1.006778 10.066686 6.371000 -12.534664 2.069237 0.377646 8.284147 -1.610393 -6.870963 -5.990989 -0.732699 0.000000 -40.831801 2.254982 -0.559618 3.182164 -0.498588 -0.651430 -2.763959 -6.701607 -0.787481 -1.315824 9.229356 1.647822 -1.746232 -4.688904 -0.393369 1.430542 0.000000 0.000000 0.000000 -2.185307 -3.035610 2.207931 -68.926578 3.356611 12.359305 -2.661153 -30.019242 0.003229 4.753360 -3.788147 -0.159832 -0.062260 0.021928 -0.000000 0.000000 0.000000 0.000000 0.000000 0.000000 0.000000 19.423428 2.690515 2.036385 64.686636 12.214600 -5.812546 3.610355 10.128616 0.013636 -1.495146 10.199997 -0.142422 0.088907 -0.118826 0.000000 0.000000 0.000000 0.000000 0.000000 0.000000 0.000000 
-0.148522 17.311152 -1.506782 144.728243 -82.523820 -132.393439 -10.438200 -2.042489 0.189580 -2.602876 -12.267167 -41.441885 1.191590 2.645007 58.176354 4.119179 26.703803 21.864019 12.789201 0.000000 -49.268300 8.045766 0.225434 -1.112997 9.849236 6.241084 -12.184314 2.021416 0.309936 8.635281 -1.632553 -6.917531 -6.195563 -0.698300 -0.000000 -40.833500 2.068393 -0.577950 3.320734 -0.534321 -0.654332 -2.733812 -6.690599 -0.787981 -1.312659 9.224100 1.521831 -1.784763 -4.695692 -0.393684 1.418902 0.000000 0.000000 0.000000 -2.194645 -2.944164 2.186321 -69.079233 3.625284 12.124669 -2.656056 -30.053234 0.003309 4.740776 -3.798077 -0.159642 -0.060946 0.019894 -0.000000 0.000000 0.000000 0.000000 0.000000 0.000000 0.000000 19.459102 2.580780 2.022953 64.538445 11.972963 -5.630903 3.618866 10.307790 0.013693 -1.483550 10.136098 -0.140523 0.089400 -0.117122 0.000000 0.000000 0.000000 0.000000 0.000000 0.000000 0.000000 
-0.137118 17.310107 -1.521908 142.967723 -82.404939 -131.034590 -10.416924 -2.169562 0.155376 -2.840962 -12.627433 -42.467161 1.256237 2.748952 60.279682 4.109533 26.535648 22.674282 12.949600 0.000000 -48.476100 8.107725 0.255811 -1.207204 9.616868 6.130524 -11.876549 1.971189 0.239016 9.029974 -1.656596 -6.969736 -6.413201 -0.662201 0.000000 -40.844099 1.872798 -0.594998 3.448781 -0.571976 -0.655929 -2.705651 -6.680908 -0.787253 -1.308019 9.228743 1.408490 -1.816071 -4.702748 -0.394073 1.409200 0.000000 0.000000 0.000000 -2.194051 -2.842309 2.163466 -69.247461 3.885327 11.868822 -2.652006 -30.085807 0.003375 4.719427 -3.796121 -0.158750 -0.059697 0.017945 -0.000000 0.000000 0.000000 0.000000 0.000000 0.000000 0.000000 19.505932 2.482983 2.006207 64.392894 11.733378 -5.419257 3.626408 10.494918 0.013748 -1.476586 10.080763 -0.139121 0.089863 -0.115358 0.000000 0.000000 0.000000 0.000000 0.000000 0.000000 0.000000 
-0.126268 17.308924 -1.536731 141.294526 -82.273036 -129.749613 -10.390487 -2.291902 0.117345 -3.108722 -12.941831 -43.525867 1.326928 2.857604 62.352674 4.095349 26.323005 23.226551 12.991500 -0.000000 -47.835700 8.177691 0.286548 -1.290219 9.371246 6.033920 -11.613231 1.919337 0.165412 9.466984 -1.681127 -7.021770 -6.641063 -0.624300 -0.000000 -40.873400 1.669084 -0.611182 3.564611 -0.611253 -0.656742 -2.679563 -6.672132 -0.785813 -1.301014 9.241928 1.306541 -1.841176 -4.709660 -0.394505 1.401197 0.000000 0.000000 0.000000 -2.182947 -2.728251 2.139331 -69.431229 4.136279 11.594900 -2.649266 -30.116047 0.003424 4.684995 -3.776782 -0.156657 -0.058530 0.016079 -0.000000 0.000000 0.000000 0.000000 0.000000 0.000000 0.000000 19.560899 2.395794 1.985938 64.253792 11.501752 -5.193571 3.632852 10.679134 0.013802 -1.475348 10.036347 -0.138421 0.090300 -0.113574 0.000000 0.000000 0.000000 0.000000 0.000000 0.000000 0.000000 
-0.115954 17.307592 -1.551323 139.693777 -82.128383 -128.523981 -10.358338 -2.410441 0.078388 -3.401349 -13.223262 -44.613235 1.404884 2.969091 64.381254 4.079752 26.098955 23.548945 12.947200 -0.000000 -47.576300 8.256065 0.318073 -1.365594 9.110954 5.935947 -11.394995 1.866923 0.089104 9.947961 -1.703523 -7.060335 -6.880165 -0.583400 0.000000 -40.915300 1.455762 -0.627382 3.669092 -0.652360 -0.657554 -2.655400 -6.663946 -0.784443 -1.291856 9.262413 1.213956 -1.860500 -4.716056 -0.394951 1.394796 0.000000 0.000000 0.000000 -2.161170 -2.606531 2.114219 -69.628885 4.381922 11.304516 -2.647972 -30.146309 0.003454 4.633681 -3.735769 -0.153266 -0.057444 0.014285 -0.000000 0.000000 0.000000 0.000000 0.000000 0.000000 0.000000 19.621387 2.316725 1.962603 64.124729 11.283973 -4.970033 3.637970 10.850744 0.013860 -1.480442 10.004900 -0.138520 0.090706 -0.111821 0.000000 0.000000 0.000000 0.000000 0.000000 0.000000 0.000000 
-0.106055 17.306045 -1.565453 138.190911 -81.976331 -127.383319 -10.322389 -2.526408 0.039974 -3.703823 -13.476931 -45.732183 1.491037 3.083405 66.359642 4.063482 25.872291 23.650338 12.827000 -0.000000 -47.594700 8.338271 0.349949 -1.433552 8.846200 5.842390 -11.210704 1.814709 0.012461 10.451773 -1.724835 -7.095664 -7.117293 -0.542600 0.000000 -40.985200 1.241553 -0.643287 3.762019 -0.693480 -0.658504 -2.633513 -6.655856 -0.783308 -1.282136 9.286543 1.130626 -1.873510 -4.721461 -0.395388 1.390230 0.000000 0.000000 0.000000 -2.133686 -2.485922 2.088625 -69.838786 4.629922 11.000306 -2.647541 -30.180296 0.003463 4.563727 -3.671801 -0.148274 -0.056395 0.012546 -0.000000 0.000000 0.000000 0.000000 0.000000 0.000000 0.000000 19.681018 2.245800 1.937249 64.009014 11.081909 -4.770169 3.642010 11.001974 0.013924 -1.490274 9.988253 -0.139120 0.091080 -0.110170 0.000000 0.000000 0.000000 0.000000 0.000000 0.000000 0.000000 
-0.096363 17.304238 -1.579574 136.683883 -81.811819 -126.233517 -10.279039 -2.639142 0.002036 -4.032523 -13.713555 -46.870413 1.585516 3.198492 68.276864 4.046033 25.646521 23.533737 12.636700 0.000000 -47.569700 8.432896 0.383991 -1.505144 8.557781 5.698998 -11.067894 1.764512 -0.067815 11.002902 -1.735981 -7.075969 -7.370558 -0.495100 0.000000 -41.056599 1.010298 -0.661926 3.853768 -0.737709 -0.661448 -2.610702 -6.647610 -0.784111 -1.266653 9.317221 1.045495 -1.888004 -4.726029 -0.395731 1.385109 0.000000 0.000000 0.000000 -2.091402 -2.346772 2.062425 -70.059307 4.846461 10.704119 -2.650081 -30.195883 0.003451 4.472597 -3.583097 -0.141681 -0.055522 0.010940 -0.000000 0.000000 0.000000 0.000000 0.000000 0.000000 0.000000 19.745777 2.171358 1.908553 63.909074 10.913464 -4.598823 3.644166 11.128536 0.013981 -1.503868 9.981515 -0.140219 0.091388 -0.108609 0.000000 0.000000 0.000000 0.000000 0.000000 0.000000 0.000000 
-0.086777 17.302217 -1.593143 135.250660 -81.645917 -125.147934 -10.232241 -2.752135 -0.033014 -4.354710 -13.939015 -48.032912 1.686406 3.313188 70.118745 4.029713 25.437846 23.268279 12.410000 -0.000000 -47.763700 8.528618 0.418723 -1.576727 8.269485 5.539197 -10.941373 1.716610 -0.146359 11.552745 -1.742967 -7.041567 -7.611213 -0.449100 0.000000 -41.158200 0.782927 -0.680700 3.941255 -0.780982 -0.664993 -2.588924 -6.638977 -0.785586 -1.251476 9.347943 0.963294 -1.898655 -4.729355 -0.396017 1.381108 0.000000 0.000000 0.000000 -2.048973 -2.218179 2.036684 -70.285922 5.063113 10.408572 -2.653286 -30.212034 0.003417 4.362060 -3.473747 -0.133989 -0.054654 0.009381 -0.000000 0.000000 0.000000 0.000000 0.000000 0.000000 0.000000 19.805324 2.098246 1.879687 63.825268 10.769912 -4.477611 3.645296 11.227622 0.014043 -1.518919 9.986989 -0.141618 0.091643 -0.107239 0.000000 0.000000 0.000000 0.000000 0.000000 0.000000 0.000000 
-0.077030 17.299962 -1.606226 133.852734 -81.478943 -124.093223 -10.181081 -2.866129 -0.065536 -4.669811 -14.158422 -49.213235 1.791931 3.425877 71.873720 4.013879 25.241753 22.887858 12.156200 0.000000 -47.997200 8.626863 0.454877 -1.654221 7.977386 5.341527 -10.825164 1.672170 -0.223463 12.098597 -1.742339 -6.974325 -7.841040 -0.403200 -0.000000 -41.281701 0.556878 -0.700116 4.031558 -0.823828 -0.669300 -2.566594 -6.629862 -0.787831 -1.235606 9.378585 0.878379 -1.908773 -4.731677 -0.396218 1.377199 0.000000 0.000000 0.000000 -2.006527 -2.097226 2.011666 -70.515804 5.266143 10.127084 -2.657551 -30.219364 0.003363 4.233996 -3.348120 -0.125297 -0.053812 0.007898 -0.000000 0.000000 0.000000 0.000000 0.000000 0.000000 0.000000 19.861393 2.020715 1.851035 63.757714 10.657768 -4.409810 3.645191 11.301134 0.014101 -1.533940 10.000658 -0.143219 0.091829 -0.106072 0.000000 0.000000 0.000000 0.000000 0.000000 0.000000 0.000000 
